<svg width="24" height="24" viewBox="0 0 24 24" fill="none" xmlns="http://www.w3.org/2000/svg">
<g clip-path="url(#clip0_81_12885)">
<path d="M10.5039 0.0708008C8.42266 0.328613 6.51016 1.10205 4.78516 2.38174C4.08204 2.90674 2.91016 4.07861 2.38516 4.78174C1.09141 6.52549 0.327351 8.4333 0.0695389 10.5474C-0.0101486 11.2411 -0.0101486 12.7599 0.0695389 13.4536C0.327351 15.5677 1.09141 17.4755 2.38516 19.2192C2.91016 19.9224 4.08204 21.0942 4.78516 21.6192C6.52891 22.913 8.43673 23.6771 10.5508 23.9349C11.2445 24.0146 12.7633 24.0146 13.457 23.9349C15.5711 23.6771 17.4789 22.913 19.2227 21.6192C19.9258 21.0942 21.0977 19.9224 21.6227 19.2192C22.9164 17.4755 23.6805 15.5677 23.9383 13.4536C24.018 12.7599 24.018 11.2411 23.9383 10.5474C23.6805 8.4333 22.9164 6.52549 21.6227 4.78174C21.0977 4.07861 19.9258 2.90674 19.2227 2.38174C17.4789 1.08799 15.5711 0.323925 13.457 0.0661125C12.7867 -0.0135746 11.1695 -0.00888824 10.5039 0.0708008ZM13.5508 1.5708C15.2711 1.8333 16.8977 2.51299 18.332 3.57705C18.9039 4.00361 20.0008 5.10049 20.4274 5.67236C21.2758 6.8208 21.8477 8.00205 22.1945 9.3333C22.4524 10.3224 22.5227 10.8989 22.5227 12.0005C22.5227 13.1021 22.4524 13.6786 22.1945 14.6677C21.7117 16.5146 20.8352 18.0333 19.4383 19.4349C18.0367 20.8317 16.518 21.7083 14.6711 22.1911C13.682 22.4489 13.1055 22.5192 12.0039 22.5192C10.9024 22.5192 10.3258 22.4489 9.33673 22.1911C7.48985 21.7083 5.9711 20.8317 4.56954 19.4349C3.17266 18.0333 2.2961 16.5146 1.81329 14.6677C1.55548 13.6786 1.48516 13.1021 1.48516 12.0005C1.48516 10.8989 1.55548 10.3224 1.81329 9.3333C2.2961 7.48643 3.17266 5.96767 4.56954 4.56611C6.40235 2.73799 8.48829 1.76768 11.1836 1.48174C11.568 1.44424 13.0727 1.50049 13.5508 1.5708Z" fill="url(#paint0_linear_81_12885)"/>
<path d="M6.76758 7.96907C6.20977 8.07219 5.42227 8.48001 5.14102 8.81751C4.87852 9.12688 4.86915 9.53469 5.11758 9.82063C5.42227 10.1628 5.79727 10.1581 6.27071 9.80188C6.68321 9.49251 6.9504 9.40344 7.38165 9.43157C7.75196 9.45501 8.0004 9.56282 8.36133 9.84876C8.60508 10.0409 8.8254 10.1066 9.05508 10.0597C9.25196 10.0222 9.45821 9.86751 9.54727 9.68938C9.6504 9.49251 9.64571 9.13157 9.5379 8.95813C9.32696 8.63469 8.67071 8.20813 8.1129 8.04407C7.79883 7.95032 7.09571 7.91282 6.76758 7.96907Z" fill="url(#paint1_linear_81_12885)"/>
<path d="M16.1848 7.97423C15.6926 8.0586 15.1817 8.30235 14.7692 8.64923C14.4738 8.89298 14.3848 9.05235 14.3848 9.32423C14.3848 9.59141 14.4832 9.80235 14.6707 9.9336C14.9707 10.1492 15.3035 10.1211 15.6457 9.84923C16.0067 9.56329 16.2551 9.45548 16.6254 9.43204C17.0567 9.40391 17.3238 9.49298 17.7363 9.80235C18.2098 10.1586 18.5848 10.1633 18.8895 9.8211C19.1379 9.53516 19.1285 9.12735 18.866 8.81798C18.6738 8.58829 18.1113 8.2461 17.6942 8.10079C17.2582 7.95079 16.6113 7.89454 16.1848 7.97423Z" fill="url(#paint2_linear_81_12885)"/>
<path d="M5.29996 12.6055C5.19684 12.657 5.09371 12.7742 5.0234 12.9055C4.91559 13.1211 4.91559 13.1305 4.96715 13.7445C5.04684 14.7148 5.22496 15.4039 5.59996 16.2289C6.35465 17.8883 7.90621 19.2945 9.64528 19.8992C10.5078 20.1992 10.9765 20.2695 12.0031 20.2695C13.0297 20.2695 13.4984 20.1992 14.3609 19.8992C16.1 19.2945 17.6515 17.8883 18.4062 16.2289C18.7812 15.4039 18.9593 14.7148 19.039 13.7445C19.0906 13.1305 19.0906 13.1211 18.9828 12.9055C18.9125 12.7742 18.8093 12.657 18.7062 12.6055C18.5515 12.5211 18.2984 12.5164 12.0031 12.5164C5.70778 12.5164 5.45465 12.5211 5.29996 12.6055ZM17.5343 14.0492C17.5343 14.1992 17.3562 14.8742 17.2297 15.2023C16.7328 16.5195 15.6922 17.6492 14.4172 18.2633C12.8703 19.0086 11.1359 19.0086 9.58903 18.2633C8.31403 17.6492 7.2734 16.5195 6.77653 15.2023C6.64996 14.8742 6.47184 14.1992 6.47184 14.0492C6.47184 13.9742 6.76715 13.9695 12.0031 13.9695C17.239 13.9695 17.5343 13.9742 17.5343 14.0492Z" fill="url(#paint3_linear_81_12885)"/>
</g>
<defs>
<linearGradient id="paint0_linear_81_12885" x1="9.39408" y1="1.18977" x2="28.7951" y2="11.3011" gradientUnits="userSpaceOnUse">
<stop stop-color="#016DEA"/>
<stop offset="1" stop-color="#FA0101"/>
</linearGradient>
<linearGradient id="paint1_linear_81_12885" x1="6.77001" y1="8.04761" x2="8.85417" y2="10.4344" gradientUnits="userSpaceOnUse">
<stop stop-color="#016DEA"/>
<stop offset="1" stop-color="#FA0101"/>
</linearGradient>
<linearGradient id="paint2_linear_81_12885" x1="16.2175" y1="8.04336" x2="18.3094" y2="10.4314" gradientUnits="userSpaceOnUse">
<stop stop-color="#016DEA"/>
<stop offset="1" stop-color="#FA0101"/>
</linearGradient>
<linearGradient id="paint3_linear_81_12885" x1="10.4648" y1="12.8982" x2="18.1054" y2="20.1594" gradientUnits="userSpaceOnUse">
<stop stop-color="#016DEA"/>
<stop offset="1" stop-color="#FA0101"/>
</linearGradient>
<clipPath id="clip0_81_12885">
<rect width="24" height="24" fill="white"/>
</clipPath>
</defs>
</svg>
