<svg width="24" height="24" viewBox="0 0 24 24" fill="none" xmlns="http://www.w3.org/2000/svg">
<g clip-path="url(#clip0_81_12911)">
<path d="M1.76797 0.135979L1.61328 0.271917V9.14065V18.0094L1.76797 18.1453L1.91797 18.2813H3.18359H4.44453L4.45859 19.575L4.47266 20.8688L4.62734 21.0047L4.77734 21.1406H6.04297H7.30391L7.31797 22.4344L7.33203 23.7281L7.48672 23.8641L7.63672 24H14.8555H22.0742L22.2242 23.8641L22.3789 23.7281V14.8594V5.99066L22.2242 5.85472L22.0742 5.71878H20.8086H19.5477L19.5336 4.42503L19.5195 3.13129L19.3648 2.99535L19.2148 2.85941H17.1898H15.1602L13.7305 1.42973L12.2961 4.19617e-05H7.10703H1.91797L1.76797 0.135979ZM11.3023 3.15004C11.3164 5.08597 11.3258 5.28284 11.4008 5.39535C11.5508 5.62034 11.593 5.62503 13.6602 5.62503H15.6055V11.4375V17.25H9.13672H2.66797V9.14065V1.03129H6.98047H11.2883L11.3023 3.15004ZM13.8477 3.09379L15.3008 4.54691H13.8336H12.3711V3.09379C12.3711 2.29222 12.3758 1.64066 12.3852 1.64066C12.3898 1.64066 13.0508 2.29222 13.8477 3.09379ZM18.4648 12V20.1094H11.9961H5.52734V19.1953V18.2813H10.9414H16.3555L16.5055 18.1453L16.6602 18.0094L16.6742 11.2875C16.6789 7.59378 16.6742 4.51878 16.6602 4.46253C16.6461 4.4016 16.5383 4.24691 16.4164 4.12035L16.2008 3.89066H17.3352H18.4648V12ZM21.3242 14.8594V22.9688H14.8555H8.38672V22.0547V21.1406H13.8008H19.2148L19.3648 21.0047L19.5195 20.8688L19.5336 13.8094L19.543 6.75003H20.4336H21.3242V14.8594Z" fill="url(#paint0_linear_81_12911)"/>
<path d="M4.6273 8.71406C4.49136 8.83594 4.47261 8.87813 4.47261 9.09375C4.47261 9.30938 4.49136 9.35156 4.6273 9.47344L4.7773 9.60938H9.1648H13.5523L13.6882 9.47344C13.8054 9.35625 13.8242 9.3 13.8242 9.09375C13.8242 8.8875 13.8054 8.83125 13.6882 8.71406L13.5523 8.57813H9.1648H4.7773L4.6273 8.71406Z" fill="url(#paint1_linear_81_12911)"/>
<path d="M4.6273 14.4328C4.49136 14.5547 4.47261 14.5969 4.47261 14.8125C4.47261 15.0281 4.49136 15.0703 4.6273 15.1922L4.7773 15.3281H9.1648H13.5523L13.6882 15.1922C13.8054 15.075 13.8242 15.0188 13.8242 14.8125C13.8242 14.6063 13.8054 14.55 13.6882 14.4328L13.5523 14.2969H9.1648H4.7773L4.6273 14.4328Z" fill="url(#paint2_linear_81_12911)"/>
</g>
<defs>
<linearGradient id="paint0_linear_81_12911" x1="9.73687" y1="1.18186" x2="27.485" y2="9.18446" gradientUnits="userSpaceOnUse">
<stop stop-color="#016DEA"/>
<stop offset="1" stop-color="#FA0101"/>
</linearGradient>
<linearGradient id="paint1_linear_81_12911" x1="8.13098" y1="8.62891" x2="8.54318" y2="10.5769" gradientUnits="userSpaceOnUse">
<stop stop-color="#016DEA"/>
<stop offset="1" stop-color="#FA0101"/>
</linearGradient>
<linearGradient id="paint2_linear_81_12911" x1="8.13098" y1="14.3477" x2="8.54318" y2="16.2956" gradientUnits="userSpaceOnUse">
<stop stop-color="#016DEA"/>
<stop offset="1" stop-color="#FA0101"/>
</linearGradient>
<clipPath id="clip0_81_12911">
<rect width="24" height="24" fill="white"/>
</clipPath>
</defs>
</svg>
