<svg width="24" height="24" viewBox="0 0 24 24" fill="none" xmlns="http://www.w3.org/2000/svg">
<g clip-path="url(#clip0_81_12893)">
<path d="M9.975 1.3312C5.175 2.17495 4.85625 2.28745 4.14375 3.0937C3.2625 4.1062 3.09375 4.9312 3.39375 6.67495C3.61875 7.98745 3.7125 8.1562 4.0875 8.21245C4.5 8.2687 4.51875 8.2312 4.4625 7.19995L4.40625 6.11245L5.15625 5.7187C6 5.2687 6.375 4.68745 6.375 3.82495C6.375 3.5062 6.4875 3.1312 6.6375 3.0187C6.76875 2.9062 8.56875 2.51245 10.6125 2.13745C14.4938 1.46245 15.0375 1.46245 15.2625 2.1937C15.3938 2.6812 16.6875 10.0687 16.6875 10.4062C16.6875 10.6125 16.4813 10.6875 16.0125 10.6875C14.8688 10.6875 13.9875 11.4 13.7625 12.5062C13.7063 12.8437 13.5938 13.125 13.5188 13.125C13.3125 13.125 5.34375 11.7375 5.26875 11.6812C5.23125 11.6625 5.1 11.0999 4.9875 10.4625C4.8 9.4312 4.725 9.2812 4.33125 9.22495C3.9 9.14995 3.9 9.1687 4.03125 10.3125L4.1625 11.4562L2.94375 11.325C1.85625 11.2125 1.70625 11.25 1.5375 11.5687C1.29375 12.0187 0 19.2 0 20.1C0 20.6625 0.09375 20.7937 0.525 20.9625C0.80625 21.075 3.9375 21.675 7.48125 22.2937C14.3063 23.475 14.5125 23.4937 14.7375 22.5937L14.85 22.1437L15.6375 22.5375C16.6875 23.0812 18.5625 23.1187 19.5938 22.5937C20.9438 21.9187 20.3625 21.2625 18.9188 21.825C16.5188 22.7812 14.0625 21 14.0625 18.3187C14.0625 17.5312 14.175 17.1375 14.55 16.575C15.2625 15.5437 15.525 15.3937 16.6875 15.375C17.25 15.375 17.925 15.2437 18.1875 15.1125C19.3313 14.475 21.375 16.5562 21.375 18.3562C21.375 18.675 21.2063 19.3687 21 19.8937C20.5688 20.9625 20.7188 21.45 21.3375 21.075C22.275 20.4937 22.5188 17.7937 21.75 16.3125C21.375 15.5625 19.9688 14.25 19.5563 14.25C19.425 14.25 19.3125 14.2125 19.3125 14.1562C19.3125 14.0062 20.6063 6.7687 20.7188 6.2437C20.7938 5.9437 21 5.7937 21.525 5.69995C22.65 5.4937 23.1938 5.1187 23.6063 4.2562C24.0938 3.26245 24.15 1.7812 23.7 1.61245C23.5312 1.5562 22.6875 1.49995 21.825 1.49995C20.1188 1.49995 19.2938 1.76245 18.9375 2.4562C18.825 2.66245 18.45 4.3687 18.1125 6.2437L17.5125 9.63745L16.8938 5.99995C16.5375 3.9937 16.1438 2.06245 15.975 1.72495C15.4313 0.506199 14.7938 0.468699 9.975 1.3312ZM23.0813 3.0562C22.7625 4.4437 22.1063 4.87495 20.325 4.87495C19.2188 4.87495 19.2188 4.87495 19.5 3.6562C19.7438 2.62495 20.0813 2.43745 21.7688 2.43745H23.2125L23.0813 3.0562ZM19.8188 6.22495C19.7625 6.4687 19.4438 8.17495 19.125 10.0312C18.8063 11.8687 18.45 13.5375 18.3563 13.725C18.075 14.2312 17.55 14.4375 16.425 14.4375C15.5438 14.4375 15.3563 14.3625 15.0188 13.95C14.5313 13.3125 14.5125 12.5625 15 12.0562C15.3375 11.6812 15.9188 11.5312 17.5312 11.4C18.0938 11.3437 18.0938 11.325 18.4313 9.56245C19.1813 5.6062 19.125 5.81245 19.5375 5.81245C19.8375 5.81245 19.8938 5.9062 19.8188 6.22495ZM8.25 13.1437C12.6188 13.9125 13.875 14.1937 14.1938 14.4937L14.6063 14.8687L14.1188 15.5062C13.65 16.1062 13.6313 16.125 13.3688 15.7687C13.0875 15.3562 12.0563 15.0937 11.4 15.2625C11.1562 15.3187 10.1438 15.9562 9.13125 16.6687L7.29375 17.9625L6.75 17.4187C6.45 17.1 6.01875 16.875 5.7375 16.875C5.30625 16.875 4.06875 17.625 1.8375 19.2562C1.3125 19.6312 0.9375 19.8 0.9375 19.6687C0.9375 19.35 2.04375 12.9562 2.175 12.5062C2.23125 12.3375 2.38125 12.1875 2.49375 12.1875C2.625 12.1875 5.2125 12.6187 8.25 13.1437ZM12.825 16.6125C13.05 16.9125 13.1625 17.5312 13.1813 18.4312C13.2 19.4062 13.3313 20.0062 13.6313 20.5687C13.9313 21.1312 14.025 21.5437 13.95 21.9375C13.875 22.2375 13.8188 22.5 13.8 22.5C12.5625 22.3312 9.8625 21.7312 9.76875 21.6187C9.7125 21.5062 9.24375 20.8312 8.7375 20.1C8.23125 19.35 7.8375 18.7312 7.89375 18.6937C7.93125 18.6562 8.775 18.0562 9.75 17.3812C11.7375 15.9937 12.3375 15.8437 12.825 16.6125ZM7.29375 19.7062C8.41875 21.3 8.56875 21.5812 8.2125 21.5062C7.96875 21.45 6.45 21.1687 4.81875 20.8875C3.20625 20.6062 1.89375 20.3625 1.9125 20.3437C2.5125 19.8375 5.56875 17.8125 5.7375 17.8125C5.86875 17.8125 6.5625 18.675 7.29375 19.7062Z" fill="url(#paint0_linear_81_12893)"/>
<path d="M3.50625 13.3124C2.86875 13.8187 2.68125 14.7749 3.09375 15.5437C3.7875 16.8937 5.83125 16.7812 6.3375 15.3749C6.5625 14.7562 6.3 13.6687 5.79375 13.2562C5.25 12.8249 4.10625 12.8437 3.50625 13.3124Z" fill="url(#paint1_linear_81_12893)"/>
<path d="M10.275 8.23125C8.75625 8.5125 7.4625 8.79375 7.3875 8.86875C7.18125 9.075 7.4625 9.5625 7.8 9.5625C8.4375 9.5625 13.4062 8.5875 13.575 8.4375C13.8 8.2125 13.575 7.6875 13.275 7.70625C13.1437 7.725 11.7937 7.95 10.275 8.23125Z" fill="url(#paint2_linear_81_12893)"/>
<path d="M10.5938 9.86249C7.725 10.3875 7.6875 10.4062 7.6875 10.7812C7.6875 10.95 7.8 11.1187 7.93125 11.1562C8.04375 11.2125 9.46875 11.0062 11.0625 10.725C13.65 10.2562 13.9688 10.1625 13.9688 9.84374C13.9688 9.31874 13.4625 9.31874 10.5938 9.86249Z" fill="url(#paint3_linear_81_12893)"/>
<path d="M15.9187 16.4438C15.5812 16.8188 15.45 19.4063 15.7312 20.1001C16.05 20.9626 16.7062 20.9626 18.4312 20.1376C21 18.8813 21.075 18.0938 18.75 16.8938C17.1937 16.0688 16.3312 15.9376 15.9187 16.4438Z" fill="url(#paint4_linear_81_12893)"/>
</g>
<defs>
<linearGradient id="paint0_linear_81_12893" x1="9.3916" y1="1.84663" x2="28.2467" y2="12.3355" gradientUnits="userSpaceOnUse">
<stop stop-color="#016DEA"/>
<stop offset="1" stop-color="#FA0101"/>
</linearGradient>
<linearGradient id="paint1_linear_81_12893" x1="4.26102" y1="13.121" x2="7.12933" y2="14.6136" gradientUnits="userSpaceOnUse">
<stop stop-color="#016DEA"/>
<stop offset="1" stop-color="#FA0101"/>
</linearGradient>
<linearGradient id="paint2_linear_81_12893" x1="9.80107" y1="7.79719" x2="11.3649" y2="10.5839" gradientUnits="userSpaceOnUse">
<stop stop-color="#016DEA"/>
<stop offset="1" stop-color="#FA0101"/>
</linearGradient>
<linearGradient id="paint3_linear_81_12893" x1="10.1447" y1="9.53667" x2="11.5338" y2="12.1907" gradientUnits="userSpaceOnUse">
<stop stop-color="#016DEA"/>
<stop offset="1" stop-color="#FA0101"/>
</linearGradient>
<linearGradient id="paint4_linear_81_12893" x1="17.4756" y1="16.3725" x2="21.3096" y2="18.4767" gradientUnits="userSpaceOnUse">
<stop stop-color="#016DEA"/>
<stop offset="1" stop-color="#FA0101"/>
</linearGradient>
<clipPath id="clip0_81_12893">
<rect width="24" height="24" fill="white"/>
</clipPath>
</defs>
</svg>
