<svg width="24" height="24" viewBox="0 0 24 24" fill="none" xmlns="http://www.w3.org/2000/svg">
<path d="M12 1C11.2044 1 10.4413 1.31607 9.87868 1.87868C9.31607 2.44129 9 3.20435 9 4V12C9 12.7956 9.31607 13.5587 9.87868 14.1213C10.4413 14.6839 11.2044 15 12 15C12.7956 15 13.5587 14.6839 14.1213 14.1213C14.6839 13.5587 15 12.7956 15 12V4C15 3.20435 14.6839 2.44129 14.1213 1.87868C13.5587 1.31607 12.7956 1 12 1V1Z" stroke="url(#paint0_linear_81_12902)" stroke-width="1.5" stroke-linecap="round" stroke-linejoin="round"/>
<path d="M19 10V12C19 13.8565 18.2625 15.637 16.9497 16.9497C15.637 18.2625 13.8565 19 12 19C10.1435 19 8.36301 18.2625 7.05025 16.9497C5.7375 15.637 5 13.8565 5 12V10" stroke="url(#paint1_linear_81_12902)" stroke-width="1.5" stroke-linecap="round" stroke-linejoin="round"/>
<path d="M12 19V23" stroke="url(#paint2_linear_81_12902)" stroke-width="1.5" stroke-linecap="round" stroke-linejoin="round"/>
<path d="M8 23H16" stroke="url(#paint3_linear_81_12902)" stroke-width="1.5" stroke-linecap="round" stroke-linejoin="round"/>
<circle cx="20" cy="4.94727" r="3.4" stroke="url(#paint4_linear_81_12902)" stroke-width="1.2"/>
<path d="M21.2333 5.14727L19.9 6.14727C19.7352 6.27087 19.5 6.15328 19.5 5.94727V3.94727C19.5 3.74125 19.7352 3.62366 19.9 3.74727L21.2333 4.74727C21.3667 4.84727 21.3667 5.04727 21.2333 5.14727Z" fill="url(#paint5_linear_81_12902)"/>
<defs>
<linearGradient id="paint0_linear_81_12902" x1="11.3472" y1="14.3106" x2="17.2248" y2="12.9979" gradientUnits="userSpaceOnUse">
<stop stop-color="#016DEA"/>
<stop offset="1" stop-color="#FA0101"/>
</linearGradient>
<linearGradient id="paint1_linear_81_12902" x1="10.4769" y1="18.5568" x2="19.1655" y2="11.5134" gradientUnits="userSpaceOnUse">
<stop stop-color="#016DEA"/>
<stop offset="1" stop-color="#FA0101"/>
</linearGradient>
<linearGradient id="paint2_linear_81_12902" x1="12.3912" y1="22.803" x2="13.4025" y2="22.6713" gradientUnits="userSpaceOnUse">
<stop stop-color="#016DEA"/>
<stop offset="1" stop-color="#FA0101"/>
</linearGradient>
<linearGradient id="paint3_linear_81_12902" x1="11.1296" y1="23.9508" x2="11.5773" y2="22.0846" gradientUnits="userSpaceOnUse">
<stop stop-color="#016DEA"/>
<stop offset="1" stop-color="#FA0101"/>
</linearGradient>
<linearGradient id="paint4_linear_81_12902" x1="19.1296" y1="8.55333" x2="25.6" y2="5.18141" gradientUnits="userSpaceOnUse">
<stop stop-color="#016DEA"/>
<stop offset="1" stop-color="#FA0101"/>
</linearGradient>
<linearGradient id="paint5_linear_81_12902" x1="20.7176" y1="3.59499" x2="18.8822" y2="4.23264" gradientUnits="userSpaceOnUse">
<stop stop-color="#016DEA"/>
<stop offset="1" stop-color="#FA0101"/>
</linearGradient>
</defs>
</svg>
